<?xml version="1.0" encoding="utf-8"?>
<!-- Generator: Adobe Illustrator 23.0.0, SVG Export Plug-In . SVG Version: 6.00 Build 0)  -->
<svg version="1.1" id="Capa_1" xmlns="http://www.w3.org/2000/svg" xmlns:xlink="http://www.w3.org/1999/xlink" x="0px" y="0px"
	 viewBox="0 0 80 80" style="enable-background:new 0 0 80 80;" xml:space="preserve">
<style type="text/css">
	.st0{display:none;fill-rule:evenodd;clip-rule:evenodd;fill:#020202;}
	.st1{fill-rule:evenodd;clip-rule:evenodd;fill:none;stroke:#FFFFFF;stroke-width:2;stroke-miterlimit:10;}
	.st2{fill-rule:evenodd;clip-rule:evenodd;fill:#FFFFFF;}
</style>
<rect class="st0" width="80" height="80"/>
<g>
	<path class="st1" d="M40.48,8.22c17.27,0,31.3,14,31.3,31.26c0,17.31-14.03,31.3-31.3,31.3s-31.26-14-31.26-31.3
		C9.22,22.21,23.21,8.22,40.48,8.22L40.48,8.22z"/>
	<path class="st2" d="M41.19,54.93L54,32.62c0.32-0.59-0.08-1.22-0.71-1.22l-25.7,0.08c-0.79,0-1.1,0.55-0.71,1.22l12.93,22.23
		C40.2,55.64,40.76,55.64,41.19,54.93L41.19,54.93z M35.99,64.47l-5.91-3.39c-0.63-0.39-0.95-0.87-0.95-1.62v-3.15
		c0-1.18,0.55-1.34,1.46-0.79l7.96,4.57c1.06,0.71,2.68,0.71,3.75,0l7.92-4.57c0.95-0.55,1.5-0.39,1.5,0.79v3.15
		c0,0.75-0.32,1.22-0.95,1.62l-5.95,3.39C41.9,66.21,38.94,66.21,35.99,64.47L35.99,64.47z M64.21,31.12v6.86
		c0,0.71-0.28,1.26-0.91,1.62l-2.76,1.58c-1.02,0.59-1.42,0.2-1.42-0.87v-9.19c0.08-1.3-0.75-2.68-1.89-3.23l-7.92-4.61
		c-0.95-0.51-1.1-1.06-0.08-1.66l2.76-1.62c0.63-0.35,1.22-0.32,1.85,0.04l5.95,3.43C62.72,25.17,64.21,27.73,64.21,31.12
		L64.21,31.12z M21.2,23.4l5.91-3.43c0.63-0.35,1.26-0.39,1.85-0.04l2.76,1.58c1.02,0.59,0.87,1.18-0.04,1.7l-7.96,4.57
		c-1.14,0.59-1.93,2.01-1.85,3.27v9.15c0,1.06-0.43,1.5-1.42,0.91l-2.76-1.58c-0.63-0.35-0.91-0.91-0.91-1.66v-6.82
		C16.79,27.65,18.25,25.09,21.2,23.4L21.2,23.4z"/>
</g>
</svg>
