<?xml version="1.0" encoding="utf-8"?>
<!-- Generator: Adobe Illustrator 23.0.0, SVG Export Plug-In . SVG Version: 6.00 Build 0)  -->
<svg version="1.1" id="Capa_1" xmlns="http://www.w3.org/2000/svg" xmlns:xlink="http://www.w3.org/1999/xlink" x="0px" y="0px"
	 viewBox="0 0 80 80" style="enable-background:new 0 0 80 80;" xml:space="preserve">
<style type="text/css">
	.st0{fill-rule:evenodd;clip-rule:evenodd;fill:none;stroke:#FFFFFF;stroke-width:2;stroke-miterlimit:10;}
</style>
<g>
	<path class="st0" d="M40.62,9.36C57.42,9.36,71,22.94,71,39.7c0,16.8-13.58,30.38-30.38,30.38c-16.76,0-30.34-13.58-30.34-30.38
		C10.28,22.94,23.86,9.36,40.62,9.36L40.62,9.36z"/>
	<path class="st0" d="M53.17,20.53c-5.7,0.73-11.63,3.18-16.49,6.66C19.8,39.28,25.43,58.95,42.53,56.92
		c7.23-0.84,11.25-6.54,11.1-12.21c-0.08-2.98-1.26-5.24-3.79-8.3c-4.55-5.43-1.72-11.52,3.94-14.65
		C55.43,20.84,54.89,20.3,53.17,20.53L53.17,20.53z"/>
</g>
</svg>
