<?xml version="1.0" encoding="utf-8"?>
<!-- Generator: Adobe Illustrator 23.0.0, SVG Export Plug-In . SVG Version: 6.00 Build 0)  -->
<svg version="1.1" id="Capa_1" xmlns="http://www.w3.org/2000/svg" xmlns:xlink="http://www.w3.org/1999/xlink" x="0px" y="0px"
	 viewBox="0 0 80 80" style="enable-background:new 0 0 80 80;" xml:space="preserve">
<style type="text/css">
	.st0{display:none;fill-rule:evenodd;clip-rule:evenodd;fill:#020202;}
	.st1{fill-rule:evenodd;clip-rule:evenodd;fill:none;stroke:#FFFFFF;stroke-width:2;stroke-miterlimit:10;}
	.st2{fill-rule:evenodd;clip-rule:evenodd;fill:#FFFFFF;}
</style>
<rect class="st0" width="80" height="80"/>
<g>
	<path class="st1" d="M40.52,7.47c17.68,0,32.01,14.33,32.01,32.05c0,17.68-14.33,32.01-32.01,32.01S8.47,57.2,8.47,39.52
		C8.47,21.8,22.84,7.47,40.52,7.47L40.52,7.47z"/>
	<path class="st2" d="M28.05,38.39c18.77-14.05,29.1-22.12,32.13-20.3c2.99,1.74-9.73,14.33-9.12,16.39
		c0.65,2.06,10.37,2.14,10.45,3.67c0.12,1.53-8.68,3.59-9.32,5.33c-0.61,1.78,9.32,4.84,9.24,6.98c-0.12,2.14-11.79-0.81-12.51,0.73
		c-0.73,1.53,1.94,6.62,0.16,7.83c-1.82,1.21-8.96-5.17-10.41-4.04c-1.41,1.13-1.82,6.86-9.52,6.13c-5.17-0.48-9.04-4.32-9.57-9.08
		C18.89,45.65,23.49,41.78,28.05,38.39L28.05,38.39z"/>
</g>
</svg>
