<?xml version="1.0" encoding="utf-8"?>
<!-- Generator: Adobe Illustrator 23.0.0, SVG Export Plug-In . SVG Version: 6.00 Build 0)  -->
<svg version="1.1" id="Capa_1" xmlns="http://www.w3.org/2000/svg" xmlns:xlink="http://www.w3.org/1999/xlink" x="0px" y="0px"
	 viewBox="0 0 80 80" style="enable-background:new 0 0 80 80;" xml:space="preserve">
<style type="text/css">
	.st0{display:none;fill-rule:evenodd;clip-rule:evenodd;fill:#020202;}
	.st1{fill-rule:evenodd;clip-rule:evenodd;fill:none;stroke:#FFFFFF;stroke-width:2;stroke-miterlimit:10;}
	.st2{fill-rule:evenodd;clip-rule:evenodd;fill:#FFFFFF;}
</style>
<rect class="st0" width="80" height="80"/>
<g>
	<path class="st1" d="M40.24,9.14c17.35,0,31.38,14.03,31.38,31.34S57.6,71.83,40.24,71.83C22.93,71.83,8.9,57.8,8.9,40.49
		S22.93,9.14,40.24,9.14L40.24,9.14z"/>
	<path class="st2" d="M33.05,19.62c16.05-9.33,35.81,4.43,31.27,24.47C59.45,65.27,38.7,67.92,22.38,60.77
		c-3.72-1.62-3.56-4.74-0.51-7.11c16.01-12.33,17.55-19.61,18.58-19.72c1.42-0.16-0.43,11.42,2.81,12.45
		c3.52,1.07,9.64-5.49,9.49-13.83c-0.12-8.34-8.66-13.24-19.64-11.38C30.36,21.59,30.56,21.04,33.05,19.62L33.05,19.62z
		 M39.06,49.22c-2.06,1.82-1.86,1.74-5.81,5.38c-2.21,2.02-2.89,2.45-2.45,2.57c0.99,0.32,9.37,0.08,7.75-5.97
		c-0.08-0.28,0.59-1.34,0.83-1.9C39.57,48.75,39.3,48.99,39.06,49.22L39.06,49.22z"/>
</g>
</svg>
