<?xml version="1.0" encoding="utf-8"?>
<!-- Generator: Adobe Illustrator 23.0.0, SVG Export Plug-In . SVG Version: 6.00 Build 0)  -->
<svg version="1.1" id="Capa_1" xmlns="http://www.w3.org/2000/svg" xmlns:xlink="http://www.w3.org/1999/xlink" x="0px" y="0px"
	 viewBox="0 0 80 80" style="enable-background:new 0 0 80 80;" xml:space="preserve">
<style type="text/css">
	.st0{display:none;fill-rule:evenodd;clip-rule:evenodd;fill:#020202;}
	.st1{fill-rule:evenodd;clip-rule:evenodd;fill:none;stroke:#FFFFFF;stroke-width:2;stroke-miterlimit:10;}
	.st2{fill-rule:evenodd;clip-rule:evenodd;fill:#FFFFFF;}
</style>
<rect class="st0" width="80" height="80"/>
<g>
	<path class="st1" d="M39.89,8c17.68,0,31.97,14.29,31.97,31.93S57.56,71.86,39.89,71.86c-17.64,0-31.93-14.29-31.93-31.93
		S22.25,8,39.89,8L39.89,8z"/>
	<path class="st2" d="M21.28,49.35L42.5,16.54c1.41-2.21,1.73-2.5,1.01,0.24l-5.15,19.29l19.73-6.76c0.85-0.32,0.85,0.56,0.44,1.21
		L37.31,63.32c-1.41,2.21-1.73,2.5-1.01-0.24l5.15-19.29l-19.73,6.76C20.88,50.88,20.88,49.99,21.28,49.35L21.28,49.35z"/>
</g>
</svg>
