<?xml version="1.0" encoding="utf-8"?>
<!-- Generator: Adobe Illustrator 23.0.0, SVG Export Plug-In . SVG Version: 6.00 Build 0)  -->
<svg version="1.1" id="Capa_1" xmlns="http://www.w3.org/2000/svg" xmlns:xlink="http://www.w3.org/1999/xlink" x="0px" y="0px"
	 viewBox="0 0 80 80" style="enable-background:new 0 0 80 80;" xml:space="preserve">
<style type="text/css">
	.st0{display:none;fill-rule:evenodd;clip-rule:evenodd;fill:#020202;}
	.st1{fill-rule:evenodd;clip-rule:evenodd;fill:none;stroke:#FFFFFF;stroke-width:2;stroke-miterlimit:10;}
	.st2{fill-rule:evenodd;clip-rule:evenodd;fill:#FFFFFF;}
</style>
<rect class="st0" width="80" height="80"/>
<g>
	<path class="st1" d="M39.54,8.44c17.48,0,31.65,14.17,31.65,31.65S57.02,71.73,39.54,71.73S7.86,57.56,7.86,40.08
		S22.06,8.44,39.54,8.44L39.54,8.44z"/>
	<path class="st2" d="M11.13,41.28c-0.44,5.51,2.91-5.47,10.69-8.34c14.41-5.31,16.88,9.34,21.87,14.81
		c12.45,13.53,26.5-3.15,20.03-18.08C53.27,5.29,13.44,13.19,11.13,41.28L11.13,41.28z M63.37,48.98c-0.2,1.08,0.08,1.44,0.64,1.56
		c1.04,0.2,1.6,0.32,2.23,1.16c0.68,0.88,1.52,0.36,1.48-1.44C67.64,47.47,64.04,45.91,63.37,48.98L63.37,48.98z M40.42,55.41
		c-0.04,1.36,1.36,0.96,2.15,0.88c0.36,0,0.68,0,0.92,0.28c0.72,0.84,1.44-0.24,2.63,0.28c2.75,1.16,1.72-4.83-1.88-4.99
		C42.62,51.78,40.5,52.77,40.42,55.41L40.42,55.41z M53.63,47.79c-2.04,2.39-6.03,0.96-8.02-0.8c-2-1.72-2.27-4.67-0.6-6.62
		C47.08,37.93,55.7,45.43,53.63,47.79L53.63,47.79z M58.54,47.35c1.48-0.16,3.31-2.15,3.75-4.03c0.52-2.12-0.6-4.15-2.47-4.55
		C56.82,38.21,55.62,47.63,58.54,47.35L58.54,47.35z"/>
</g>
</svg>
