<?xml version="1.0" encoding="utf-8"?>
<!-- Generator: Adobe Illustrator 23.0.0, SVG Export Plug-In . SVG Version: 6.00 Build 0)  -->
<svg version="1.1" id="Capa_1" xmlns="http://www.w3.org/2000/svg" xmlns:xlink="http://www.w3.org/1999/xlink" x="0px" y="0px"
	 viewBox="0 0 80 80" style="enable-background:new 0 0 80 80;" xml:space="preserve">
<style type="text/css">
	.st0{display:none;fill-rule:evenodd;clip-rule:evenodd;fill:#020202;}
	.st1{fill-rule:evenodd;clip-rule:evenodd;fill:none;stroke:#FFFFFF;stroke-width:2;stroke-miterlimit:10;}
	.st2{fill-rule:evenodd;clip-rule:evenodd;fill:#FFFFFF;}
</style>
<rect class="st0" width="80" height="80"/>
<g>
	<path class="st1" d="M40.18,8c17.66,0,31.95,14.28,31.95,31.91c0,17.66-14.28,31.95-31.95,31.95c-17.62,0-31.91-14.28-31.91-31.95
		C8.27,22.28,22.56,8,40.18,8L40.18,8z"/>
	<path class="st2" d="M19.34,47.31c0.93,0.32,1.21,2.29,2.98,2.13c0.89-0.08,0.72-0.28,0.36-1.05c-1.01-2.21-3.62-8.17-1.37-12.27
		c2.82-5.07,5.19-7.2,5.43-8.45c0.2-1.21,1.69,1.69,0,5.07c-1.09,2.13-0.4,3.78,0.24,4.71c1.09,1.49,0.68,0.6,0.8-0.56
		c0.24-2.21,1.41-6.64,6.72-9.66c7.32-4.14,1.25-10.78,2.45-11.35c1.25-0.56,8.57,2.45,11.07,11.47c2.45,9.01-0.24,11.59,1.21,12.15
		c1.49,0.56,9.25-4.71,10.26-6.84c0.24-0.48,0.56-0.32,0.85,0.32c0.93,2.09,1.41,9.01-3.7,13.52c-0.52,0.44-1.01,1.05,0.04,0.97
		c1.69-0.08,4.51-0.56,6.56-2.45c1.17-1.01,1.69-2.82,1.41,0.24c-0.2,2.09-1.37,5.51-6.36,8.17c-3.46,1.85-5.79,5.71-9.7,8.21
		c-4.1,2.62-10.02,3.02-14.61,1.57c-5.79-1.77-4.35-6.32-10.34-9.13c-3.18-1.49-4.67-5.23-4.71-6.44
		C18.94,47.31,19.02,47.23,19.34,47.31L19.34,47.31z"/>
</g>
</svg>
