<?xml version="1.0" encoding="utf-8"?>
<!-- Generator: Adobe Illustrator 23.0.0, SVG Export Plug-In . SVG Version: 6.00 Build 0)  -->
<svg version="1.1" id="Capa_1" xmlns="http://www.w3.org/2000/svg" xmlns:xlink="http://www.w3.org/1999/xlink" x="0px" y="0px"
	 viewBox="0 0 80 80" style="enable-background:new 0 0 80 80;" xml:space="preserve">
<style type="text/css">
	.st0{display:none;fill-rule:evenodd;clip-rule:evenodd;fill:#020202;}
	.st1{fill-rule:evenodd;clip-rule:evenodd;fill:none;stroke:#FFFFFF;stroke-width:2;stroke-miterlimit:10;}
	.st2{fill-rule:evenodd;clip-rule:evenodd;fill:#FFFFFF;}
</style>
<rect class="st0" width="80" height="80"/>
<g>
	<path class="st1" d="M40.12,9.07c17.55,0,31.73,13.75,31.73,30.72S57.67,70.52,40.12,70.52c-17.51,0-31.69-13.75-31.69-30.72
		S22.62,9.07,40.12,9.07L40.12,9.07z"/>
	<path class="st2" d="M40.04,17.56L40.04,17.56c1.04,0,1.92,0.85,1.92,1.9v1.86l0.64-0.62c0.76-0.74,2-0.74,2.76,0l0,0
		c0.72,0.74,0.72,1.94,0,2.67l-3.4,3.25v9.96l9.03-5.04l1.24-4.46c0.28-1.01,1.36-1.63,2.36-1.36l0,0c1.04,0.27,1.68,1.32,1.4,2.32
		l-0.24,0.81l1.68-0.93c0.92-0.54,2.12-0.23,2.64,0.7l0,0c0.56,0.89,0.24,2.05-0.68,2.56l-1.68,0.93l0.84,0.23
		c1.04,0.27,1.64,1.32,1.36,2.29l0,0c-0.28,1.01-1.32,1.63-2.36,1.36l-4.6-1.2l-8.79,4.92l8.63,4.84l4.6-1.2
		c1.04-0.27,2.12,0.35,2.4,1.36l0,0c0.28,0.97-0.36,2.01-1.36,2.29l-0.88,0.23l1.68,0.93c0.92,0.5,1.24,1.67,0.72,2.56l0,0
		c-0.52,0.93-1.72,1.24-2.68,0.7l-1.64-0.93l0.2,0.81c0.28,1.01-0.32,2.05-1.36,2.32l0,0c-1.04,0.27-2.12-0.35-2.4-1.36l-1.2-4.46
		l-8.91-4.96v10.11l3.4,3.25c0.72,0.74,0.72,1.94,0,2.67l0,0c-0.76,0.74-2,0.74-2.76,0l-0.64-0.62v1.86c0,1.05-0.88,1.9-1.92,1.9
		l0,0c-1.08,0-1.96-0.85-1.96-1.9v-1.86l-0.64,0.62c-0.72,0.74-1.96,0.74-2.72,0l0,0c-0.76-0.74-0.76-1.94,0-2.67l3.36-3.25v-9.84
		l-8.67,4.84l-1.2,4.46c-0.28,1.01-1.36,1.59-2.4,1.32l0,0c-1.04-0.27-1.64-1.32-1.36-2.29l0.2-0.85l-1.68,0.97
		c-0.92,0.5-2.12,0.19-2.64-0.7l0,0c-0.52-0.89-0.2-2.05,0.72-2.6l1.64-0.93l-0.84-0.19c-1-0.27-1.64-1.32-1.36-2.32l0,0
		c0.28-1.01,1.36-1.59,2.4-1.36l4.6,1.2l8.87-4.96l-9.03-5.04l-4.6,1.2c-1.04,0.23-2.12-0.35-2.36-1.36l0,0
		c-0.28-1.01,0.32-2.05,1.36-2.32l0.84-0.19l-1.68-0.93c-0.92-0.54-1.24-1.7-0.68-2.6l0,0c0.52-0.89,1.72-1.2,2.64-0.7l1.68,0.93
		L24.3,27.9c-0.28-0.97,0.36-2.01,1.36-2.29l0,0c1.04-0.27,2.12,0.31,2.4,1.32l1.24,4.46l8.79,4.92v-9.69l-3.36-3.25
		c-0.76-0.74-0.76-1.94,0-2.67l0,0c0.76-0.74,2-0.74,2.72,0l0.64,0.62v-1.86C38.08,18.41,38.96,17.56,40.04,17.56L40.04,17.56z"/>
</g>
</svg>
