<?xml version="1.0" encoding="utf-8"?>
<!-- Generator: Adobe Illustrator 23.0.0, SVG Export Plug-In . SVG Version: 6.00 Build 0)  -->
<svg version="1.1" id="Capa_1" xmlns="http://www.w3.org/2000/svg" xmlns:xlink="http://www.w3.org/1999/xlink" x="0px" y="0px"
	 viewBox="0 0 80 80" style="enable-background:new 0 0 80 80;" xml:space="preserve">
<style type="text/css">
	.st0{display:none;fill-rule:evenodd;clip-rule:evenodd;fill:#020202;}
	.st1{fill-rule:evenodd;clip-rule:evenodd;fill:none;stroke:#FFFFFF;stroke-width:2;stroke-miterlimit:10;}
	.st2{fill-rule:evenodd;clip-rule:evenodd;fill:#FFFFFF;}
</style>
<rect class="st0" width="80" height="80"/>
<g>
	<path class="st1" d="M39.98,7.88c17.49,0,31.64,14.15,31.64,31.64c0,17.45-14.15,31.6-31.64,31.6c-17.45,0-31.6-14.15-31.6-31.6
		C8.38,22.03,22.53,7.88,39.98,7.88L39.98,7.88z"/>
	<path class="st2" d="M46.2,30.08c0.84,0.4,1.63,0.88,2.35,1.43l0,0l2.11-2.11l0,0c0.48-0.48,1.28-0.48,1.75,0l0,0l2.11,2.11
		c0.48,0.48,0.48,1.28,0,1.75l0,0c-0.48,0.48-1.24,0.48-1.71,0l-1.28-1.28l-1.28,1.24c1.39,1.71,2.35,3.94,2.67,6.65l0.36-0.36l0,0
		c0.48-0.48,1.24-0.48,1.71,0l0,0l2.15,2.11c0.48,0.48,0.48,1.24,0,1.71l0,0c-0.48,0.48-1.28,0.48-1.71,0l-1.28-1.24l-1.16,1.12
		c-0.12,2.19-0.6,4.26-1.35,6.1l1.51,0.04l0,0c0.68,0,1.24,0.56,1.24,1.2l0,0l-0.04,3.03c0,0.68-0.56,1.2-1.24,1.2l0,0
		c-0.64,0-1.2-0.56-1.2-1.2v-1.79l-1.47-0.04c-2.39,3.94-6.18,6.5-10.48,6.5c-4.26,0-8.05-2.55-10.44-6.5l-1.47,0.04v1.79
		c0,0.64-0.56,1.2-1.2,1.2l0,0c-0.68,0-1.24-0.52-1.24-1.2l-0.04-3.03l0,0c0-0.64,0.56-1.2,1.24-1.2l0,0l1.51-0.04
		c-0.76-1.83-1.24-3.91-1.35-6.1l-1.16-1.12l-1.28,1.24c-0.44,0.48-1.24,0.48-1.71,0l0,0c-0.48-0.48-0.48-1.24,0-1.71L25,39.52l0,0
		c0.48-0.48,1.24-0.48,1.71,0l0,0l0.36,0.36c0.32-2.71,1.28-4.94,2.67-6.65l-1.28-1.24l-1.28,1.28c-0.48,0.48-1.24,0.48-1.71,0l0,0
		c-0.48-0.48-0.48-1.28,0-1.75l2.11-2.11l0,0c0.48-0.48,1.28-0.48,1.71,0l0,0l2.15,2.11l0,0c0.72-0.56,1.51-1.04,2.35-1.43
		c-0.04-0.2-0.08-0.44-0.08-0.68c0-2.11,1.08-4.58,3.07-5.86l-1.04-1.04L35,23.26c-0.28,0.28-0.72,0.28-1,0l0,0
		c-0.32-0.28-0.32-0.76,0-1.04l1.24-1.24l0,0c0.28-0.28,0.76-0.28,1.04,0l0,0l1.91,1.91c0.56-0.2,1.16-0.28,1.79-0.28
		c0.68,0,1.28,0.08,1.83,0.28l1.91-1.91l0,0c0.28-0.28,0.76-0.28,1.04,0l0,0L46,22.23c0.32,0.28,0.32,0.76,0,1.04l0,0
		c-0.28,0.28-0.72,0.28-1,0l-0.76-0.76l-1.04,1.04c1.99,1.28,3.07,3.75,3.07,5.86C46.28,29.64,46.24,29.88,46.2,30.08L46.2,30.08z"
		/>
</g>
</svg>
