<?xml version="1.0" encoding="utf-8"?>
<!-- Generator: Adobe Illustrator 23.0.0, SVG Export Plug-In . SVG Version: 6.00 Build 0)  -->
<svg version="1.1" id="Capa_1" xmlns="http://www.w3.org/2000/svg" xmlns:xlink="http://www.w3.org/1999/xlink" x="0px" y="0px"
	 viewBox="0 0 80 80" style="enable-background:new 0 0 80 80;" xml:space="preserve">
<style type="text/css">
	.st0{display:none;fill-rule:evenodd;clip-rule:evenodd;fill:#020202;}
	.st1{fill-rule:evenodd;clip-rule:evenodd;fill:none;stroke:#FFFFFF;stroke-width:2;stroke-miterlimit:10;}
	.st2{fill-rule:evenodd;clip-rule:evenodd;fill:#FFFFFF;}
</style>
<rect class="st0" width="80" height="80"/>
<g>
	<path class="st1" d="M39.98,8.26c17.56,0,31.76,14.2,31.76,31.76c0,17.52-14.2,31.72-31.76,31.72c-17.52,0-31.72-14.2-31.72-31.72
		C8.26,22.46,22.46,8.26,39.98,8.26L39.98,8.26z"/>
	<path class="st2" d="M26.58,20.06L26.58,20.06c2.08,0,3.8,1.72,3.8,3.84v7.56c0,2.08-1.72,3.8-3.8,3.8l0,0
		c-2.12,0-3.84-1.72-3.84-3.8V23.9C22.74,21.78,24.46,20.06,26.58,20.06L26.58,20.06z M45.74,53.74c1.72,0,3.12,1.4,3.12,3.12v2.52
		c0,1.72-1.44,3.16-3.12,3.16H35.1c-1.72,0-3.12-1.44-3.12-3.16v-2.52c0-1.72,1.4-3.12,3.12-3.12H45.74z M54.1,36.94
		c1.72,0,3.16,1.4,3.16,3.12v8.92c0,1.72-1.44,3.16-3.16,3.16c-4.96,0-9.96,0-14.92,0c-1.64,0-2.96-1.36-2.96-3
		c0-1.6,1.32-2.96,2.96-2.96h3.8v-6.12c0-1.72,1.4-3.12,3.12-3.12H54.1z M25.9,36.94c-1.72,0-3.16,1.4-3.16,3.12v8.92
		c0,1.72,1.44,3.16,3.16,3.16h5.56c1.72,0,3.12-1.44,3.12-3.16v-4.4h2.96c2.12,0,3.84-1.72,3.84-3.84c0-2.08-1.72-3.8-3.84-3.8
		C33.66,36.94,29.78,36.94,25.9,36.94L25.9,36.94z M53.86,21.74L53.86,21.74c1.84,0,3.4,1.52,3.4,3.4v6.72c0,1.88-1.56,3.4-3.4,3.4
		l0,0c-1.88,0-3.4-1.52-3.4-3.4v-6.72C50.46,23.26,51.98,21.74,53.86,21.74L53.86,21.74z M35.82,17.5L35.82,17.5
		c2.08,0,3.8,1.72,3.8,3.8v10.16c0,2.08-1.72,3.8-3.8,3.8l0,0c-2.12,0-3.84-1.72-3.84-3.8V21.3C31.98,19.22,33.7,17.5,35.82,17.5
		L35.82,17.5z M45.02,20.06L45.02,20.06c2.12,0,3.84,1.72,3.84,3.84v7.56c0,2.08-1.72,3.8-3.84,3.8l0,0c-2.08,0-3.8-1.72-3.8-3.8
		V23.9C41.22,21.78,42.94,20.06,45.02,20.06L45.02,20.06z"/>
</g>
</svg>
