<?xml version="1.0" encoding="utf-8"?>
<!-- Generator: Adobe Illustrator 23.0.0, SVG Export Plug-In . SVG Version: 6.00 Build 0)  -->
<svg version="1.1" id="Capa_1" xmlns="http://www.w3.org/2000/svg" xmlns:xlink="http://www.w3.org/1999/xlink" x="0px" y="0px"
	 viewBox="0 0 80 80" style="enable-background:new 0 0 80 80;" xml:space="preserve">
<style type="text/css">
	.st0{display:none;fill-rule:evenodd;clip-rule:evenodd;fill:#020202;}
	.st1{fill-rule:evenodd;clip-rule:evenodd;fill:none;stroke:#FFFFFF;stroke-width:2;stroke-miterlimit:10;}
	.st2{fill-rule:evenodd;clip-rule:evenodd;fill:#FFFFFF;}
</style>
<rect class="st0" width="80" height="80"/>
<g>
	<path class="st1" d="M40.07,8c17.46,0,31.64,14.28,31.64,31.95c0,17.62-14.19,31.91-31.64,31.91S8.47,57.57,8.47,39.95
		C8.47,22.28,22.62,8,40.07,8L40.07,8z"/>
	<path class="st2" d="M22.02,23.13c-0.64,1.73,8.89,13.36,8.81,18.03c-0.04,2.25-10.88,6-8.21,6.76c1.75,0.52,8.09-0.48,7.69,1.21
		c-0.44,1.69-4.74,8.25-3.43,7.85c2.63-0.84,8.57-4.79,11.88-9.74c1.12-1.69,1.51-1.73,2.67,0c3.27,4.99,9.21,8.89,11.88,9.74
		c1.28,0.4-3.03-6.16-3.43-7.85c-0.44-1.69,5.94-0.68,7.69-1.21c2.67-0.76-8.17-4.51-8.21-6.76c-0.12-4.67,9.44-16.3,8.77-18.03
		c-0.6-1.61-10.84,5.31-16.18,10.9c-1.79,1.85-2.11,1.69-3.71,0C32.9,28.44,22.62,21.52,22.02,23.13L22.02,23.13z"/>
</g>
</svg>
