<?xml version="1.0" encoding="utf-8"?>
<!-- Generator: Adobe Illustrator 23.0.0, SVG Export Plug-In . SVG Version: 6.00 Build 0)  -->
<svg version="1.1" id="Capa_1" xmlns="http://www.w3.org/2000/svg" xmlns:xlink="http://www.w3.org/1999/xlink" x="0px" y="0px"
	 viewBox="0 0 80 80" style="enable-background:new 0 0 80 80;" xml:space="preserve">
<style type="text/css">
	.st0{display:none;fill-rule:evenodd;clip-rule:evenodd;fill:#020202;}
	.st1{fill-rule:evenodd;clip-rule:evenodd;fill:none;stroke:#FFFFFF;stroke-width:2;stroke-miterlimit:10;}
	.st2{fill-rule:evenodd;clip-rule:evenodd;fill:#FFFFFF;}
</style>
<rect class="st0" width="80" height="80"/>
<g>
	<path class="st1" d="M40.02,7.75c17.8,0,32.23,14.43,32.23,32.27c0,17.8-14.43,32.23-32.23,32.23c-17.84,0-32.27-14.43-32.27-32.23
		C7.75,22.18,22.18,7.75,40.02,7.75L40.02,7.75z"/>
	<path class="st2" d="M40.02,15.1c3.94,0,7.72,0.93,11.06,2.6c-1.42-0.41-2.89-0.61-4.43-0.61c-9.35,0-16.91,7.6-16.91,16.95
		s7.56,16.91,16.91,16.91S63.6,43.39,63.6,34.05c0-0.89-0.08-1.79-0.2-2.64c0.98,2.68,1.5,5.57,1.5,8.62
		c0,13.74-11.14,24.88-24.88,24.88c-13.78,0-24.92-11.14-24.92-24.88C15.1,26.24,26.24,15.1,40.02,15.1L40.02,15.1z"/>
</g>
</svg>
