<?xml version="1.0" encoding="utf-8"?>
<!-- Generator: Adobe Illustrator 23.0.0, SVG Export Plug-In . SVG Version: 6.00 Build 0)  -->
<svg version="1.1" id="Capa_1" xmlns="http://www.w3.org/2000/svg" xmlns:xlink="http://www.w3.org/1999/xlink" x="0px" y="0px"
	 viewBox="0 0 80 80" style="enable-background:new 0 0 80 80;" xml:space="preserve">
<style type="text/css">
	.st0{display:none;fill-rule:evenodd;clip-rule:evenodd;fill:#020202;}
	.st1{fill-rule:evenodd;clip-rule:evenodd;fill:none;stroke:#FFFFFF;stroke-width:2;stroke-miterlimit:10;}
	.st2{fill-rule:evenodd;clip-rule:evenodd;fill:#FFFFFF;}
</style>
<rect class="st0" width="80" height="80"/>
<g>
	<path class="st1" d="M39.55,8C57.22,8,71.5,22.28,71.5,39.91c0,17.66-14.28,31.95-31.95,31.95c-17.62,0-31.91-14.28-31.91-31.95
		C7.64,22.28,21.93,8,39.55,8L39.55,8z"/>
	<path class="st2" d="M38.18,17.46c-6.24,5.07-24.63,27.88-3.1,39.88c4.75,2.66,3.18,8.37,3.18,8.37c0.56,0.12,1.97,0.12,2.53,0
		c0,0-1.57-5.67,3.18-8.37c24.46-13.96,1.61-23.02-3.06-39.84C40.52,16.05,39.27,16.57,38.18,17.46L38.18,17.46z"/>
</g>
</svg>
