<?xml version="1.0" encoding="utf-8"?>
<!-- Generator: Adobe Illustrator 23.0.0, SVG Export Plug-In . SVG Version: 6.00 Build 0)  -->
<svg version="1.1" id="Capa_1" xmlns="http://www.w3.org/2000/svg" xmlns:xlink="http://www.w3.org/1999/xlink" x="0px" y="0px"
	 viewBox="0 0 80 80" style="enable-background:new 0 0 80 80;" xml:space="preserve">
<style type="text/css">
	.st0{display:none;fill-rule:evenodd;clip-rule:evenodd;fill:#020202;}
	.st1{fill-rule:evenodd;clip-rule:evenodd;fill:none;stroke:#FFFFFF;stroke-width:2;stroke-miterlimit:10;}
	.st2{fill-rule:evenodd;clip-rule:evenodd;fill:#FFFFFF;}
</style>
<rect class="st0" width="80" height="80"/>
<g>
	<path class="st1" d="M40.45,8c17.14,0,31.04,14.29,31.04,31.93s-13.9,31.93-31.04,31.93c-17.18,0-31.08-14.29-31.08-31.93
		S23.27,8,40.45,8L40.45,8z"/>
	<path class="st2" d="M39.83,27.48h0.12h0.09c11.81,0,21.35,11.51,21.35,14.04c0,2.53-9.54,14.04-21.35,14.04h-0.09h-0.12
		c-11.81,0-21.35-11.51-21.35-14.04C18.48,38.99,28.02,27.48,39.83,27.48L39.83,27.48z M39.95,35.37c3.3,0,5.98,2.76,5.98,6.15
		s-2.68,6.15-5.98,6.15c-3.33,0-5.98-2.76-5.98-6.15S36.62,35.37,39.95,35.37L39.95,35.37z M39.86,31.1l0.09,0.03l0.06-0.03
		c9.16,0,16.58,8.56,16.58,10.42s-7.42,10.42-16.58,10.42l-0.06-0.03l-0.09,0.03c-9.16,0-16.58-8.56-16.58-10.42
		S30.7,31.1,39.86,31.1L39.86,31.1z"/>
</g>
</svg>
