<?xml version="1.0" encoding="utf-8"?>
<!-- Generator: Adobe Illustrator 23.0.0, SVG Export Plug-In . SVG Version: 6.00 Build 0)  -->
<svg version="1.1" id="Capa_1" xmlns="http://www.w3.org/2000/svg" xmlns:xlink="http://www.w3.org/1999/xlink" x="0px" y="0px"
	 viewBox="0 0 80 80" style="enable-background:new 0 0 80 80;" xml:space="preserve">
<style type="text/css">
	.st0{fill-rule:evenodd;clip-rule:evenodd;fill:none;stroke:#FFFFFF;stroke-width:2;stroke-miterlimit:10;}
	.st1{fill-rule:evenodd;clip-rule:evenodd;fill:#FFFFFF;}
</style>
<g>
	<path class="st0" d="M41.29,8c17.54,0,31.75,14.21,31.75,31.75c0,17.58-14.21,31.79-31.75,31.79C23.71,71.54,9.5,57.33,9.5,39.75
		C9.5,22.21,23.71,8,41.29,8L41.29,8z"/>
	<path class="st1" d="M23.15,55.89c-3.76-1.08-3.92-2.16-2.72-5.04c4.56-11.17,11.25-21.62,17.22-27.99c1.12-1.2,2.68-1,3.96,0
		c1.88,1.4,2.2,3.76,3.96,6.13c0.64,0.88,5.29,0.72,5.93,1.68c0.56,0.84,1.16,1.76,1.72,2.72c0.68,1.16,1.32,2.32,1.92,3.4
		c1.32,2.36,1.56,3.12,0.12,5.49l-7.69,12.61c-1.2,1.96-2.24,2.6-4.52,2.6C35.36,57.61,27.36,57.05,23.15,55.89L23.15,55.89z
		 M60.19,46.44c0.68,1.44,1.32,2.92,1.92,4.4c1.2,2.88,1.08,3.96-2.72,5.04c-1.56,0.44-3.64,0.8-6.05,1.04
		c-2.16,0.24-1.88-1-0.96-2.44l4.04-6.73C58.31,44.72,58.63,43.11,60.19,46.44L60.19,46.44z"/>
</g>
</svg>
