<?xml version="1.0" encoding="utf-8"?>
<!-- Generator: Adobe Illustrator 23.0.0, SVG Export Plug-In . SVG Version: 6.00 Build 0)  -->
<svg version="1.1" id="Capa_1" xmlns="http://www.w3.org/2000/svg" xmlns:xlink="http://www.w3.org/1999/xlink" x="0px" y="0px"
	 viewBox="0 0 80 80" style="enable-background:new 0 0 80 80;" xml:space="preserve">
<style type="text/css">
	.st0{display:none;fill-rule:evenodd;clip-rule:evenodd;fill:#020202;}
	.st1{fill-rule:evenodd;clip-rule:evenodd;fill:none;stroke:#FFFFFF;stroke-width:2;stroke-miterlimit:10;}
	.st2{fill-rule:evenodd;clip-rule:evenodd;fill:#FFFFFF;}
</style>
<rect class="st0" width="80" height="80"/>
<g>
	<path class="st1" d="M39.99,9.09c17.32,0,31.36,14.04,31.36,31.36c0,17.36-14.04,31.4-31.36,31.4s-31.4-14.04-31.4-31.4
		C8.59,23.13,22.67,9.09,39.99,9.09L39.99,9.09z"/>
	<path class="st2" d="M23.77,41.82c5.44-0.08,9.89,5.17,7.82,10.31c-1.65,4.1-6.09,4.83-9.66,2.53c-3.72-2.34-7.24-6.98-3.1-10.88
		C20.16,42.55,21.93,41.9,23.77,41.82L23.77,41.82z M46.38,17.02c6.75,0,6.17,11.04-1.03,10.62c-6.71-0.42-6.36-9.62,0.08-10.58
		C45.73,17.02,46.03,16.98,46.38,17.02L46.38,17.02z M27.6,18.75c9.08,0.38,8.05,13.87-0.42,14.3c-4.48,0.23-8.24-3.07-7.51-7.86
		C20.24,21.43,23.8,18.59,27.6,18.75L27.6,18.75z M58.34,31.59c4.64-0.04,6.13,4.33,4.87,8.16c-0.92,2.76-3.14,6.17-5.4,8.01
		c-2.61,2.11-5.71-0.04-6.59-2.95C49.71,39.9,52.32,31.51,58.34,31.59L58.34,31.59z M45.34,48.6c4.41-0.11,7.86,4.56,7.78,8.85
		c-0.08,3.91-2.99,7.67-7.05,7.63c-3.45-0.04-5.63-2.68-5.44-6.02c0.08-1.46,0.54-3.1,0.69-4.64C41.66,51.71,41.7,48.53,45.34,48.6
		L45.34,48.6z M40.21,31.47c6.48,0.04,8.66,8.51,4.29,12.92c-4.91,4.98-13.11-0.08-11.46-7.13C33.85,33.96,36.8,31.39,40.21,31.47
		L40.21,31.47z"/>
</g>
</svg>
