<?xml version="1.0" encoding="utf-8"?>
<!-- Generator: Adobe Illustrator 23.0.0, SVG Export Plug-In . SVG Version: 6.00 Build 0)  -->
<svg version="1.1" id="Capa_1" xmlns="http://www.w3.org/2000/svg" xmlns:xlink="http://www.w3.org/1999/xlink" x="0px" y="0px"
	 viewBox="0 0 80 80" style="enable-background:new 0 0 80 80;" xml:space="preserve">
<style type="text/css">
	.st0{display:none;fill-rule:evenodd;clip-rule:evenodd;fill:#020202;}
	.st1{fill-rule:evenodd;clip-rule:evenodd;fill:none;stroke:#FFFFFF;stroke-width:2;stroke-miterlimit:10;}
	.st2{fill-rule:evenodd;clip-rule:evenodd;fill:#FFFFFF;}
</style>
<rect class="st0" width="80" height="80"/>
<g>
	<path class="st1" d="M39.98,7c17.89,0,32.36,14.47,32.36,32.36c0,17.85-14.47,32.32-32.36,32.32c-17.85,0-32.32-14.47-32.32-32.32
		C7.66,21.47,22.13,7,39.98,7L39.98,7z"/>
	<path class="st2" d="M39.98,17.27c7.82,0,14.14,6.36,14.14,14.14c0,4.56-2.16,8.64-5.54,11.21c-2.08,7.91-15.08,7.91-17.2,0
		c-3.34-2.57-5.5-6.64-5.5-11.21C25.88,23.63,32.2,17.27,39.98,17.27L39.98,17.27z M60.07,49.14L60.07,49.14
		c0.29,1.06-0.37,2.2-1.43,2.49l-10.8,2.89l10.8,2.89c1.06,0.29,1.71,1.39,1.43,2.49l0,0c-0.29,1.06-1.43,1.71-2.49,1.43L39.98,56.6
		l-17.56,4.73c-1.1,0.29-2.2-0.37-2.49-1.43l0,0c-0.29-1.1,0.37-2.2,1.43-2.49l10.8-2.89l-10.8-2.89c-1.06-0.29-1.71-1.43-1.43-2.49
		l0,0c0.29-1.1,1.39-1.75,2.49-1.43l17.56,4.69l17.61-4.69C58.64,47.39,59.79,48.04,60.07,49.14L60.07,49.14z M34.89,25.83
		c1.63,0,2.97,2.32,2.97,5.13c0,2.85-1.34,5.13-2.97,5.13c-1.67,0-2.97-2.28-2.97-5.13C31.91,28.15,33.21,25.83,34.89,25.83
		L34.89,25.83z M45.11,25.83c1.67,0,2.97,2.32,2.97,5.13c0,2.85-1.3,5.13-2.97,5.13c-1.63,0-2.97-2.28-2.97-5.13
		C42.14,28.15,43.48,25.83,45.11,25.83L45.11,25.83z M38.39,37.73c0.33,0,0.61,0.45,0.61,1.02c0,0.57-0.29,1.06-0.61,1.06
		c-0.33,0-0.61-0.49-0.61-1.06C37.78,38.18,38.06,37.73,38.39,37.73L38.39,37.73z M41.61,37.73c0.33,0,0.61,0.45,0.61,1.02
		c0,0.57-0.29,1.06-0.61,1.06c-0.37,0-0.61-0.49-0.61-1.06C41,38.18,41.24,37.73,41.61,37.73L41.61,37.73z"/>
</g>
</svg>
